<svg xmlns="http://www.w3.org/2000/svg" width="500" height="500" viewBox="0 0 500 500" version="1.1"><path d="M 180.314 129.950 C 178.561 131.019, 176.649 132.787, 176.064 133.881 L 175 135.869 175 203.469 L 175 271.070 176.704 273.672 C 177.642 275.102, 179.877 276.886, 181.672 277.636 L 184.936 279 250.067 279 L 315.198 279 318.393 277.484 C 320.150 276.650, 322.356 274.668, 323.294 273.080 L 325 270.191 325 203.546 L 325 136.901 323.483 133.967 C 322.649 132.354, 320.646 130.351, 319.033 129.517 L 316.099 128 310.050 128 L 304 128 303.994 170.250 C 303.988 215.454, 303.584 220.720, 299.408 230.025 L 296.716 236.024 292.731 239.624 C 290.538 241.605, 286.665 244.162, 284.122 245.307 L 279.500 247.389 272 247.431 L 264.500 247.473 261 245.622 C 259.075 244.604, 256.338 242.686, 254.918 241.360 L 252.336 238.947 248.421 242.639 C 246.269 244.669, 242.481 247.262, 240.004 248.401 L 235.500 250.471 228 250.430 L 220.500 250.389 215.500 248.143 C 202.621 242.359, 195.298 227.119, 196.197 207.969 L 196.500 201.500 208.500 201.500 L 220.500 201.500 221.040 209.106 L 221.581 216.712 223.343 219.401 C 224.313 220.881, 226.225 222.601, 227.593 223.224 L 230.081 224.358 232.688 223.429 C 234.122 222.918, 236.231 221.244, 237.374 219.708 L 239.453 216.916 239.842 199.958 L 240.231 183 218.115 183 L 196 183 196 169.500 L 196 156 229.932 156 L 263.863 156 263.909 183.250 C 263.934 198.238, 263.965 211.963, 263.977 213.750 L 264 217 266 219 L 268 221 271.045 221 L 274.091 221 276.545 218.545 L 279 216.091 279 172.045 L 279 128 231.250 128.004 L 183.500 128.007 180.314 129.950 M 189.774 314.750 L 189.500 331.500 188 331.500 L 186.500 331.500 186 325.500 L 185.500 319.500 182 319.500 L 178.500 319.500 178.204 326.281 L 177.907 333.061 180.877 336.031 L 183.846 339 188.173 338.968 C 192.826 338.934, 194.998 337.767, 196.837 334.316 L 198 332.131 198 315.066 L 198 298 194.024 298 L 190.048 298 189.774 314.750 M 222 298.860 C 222 300.463, 219.036 330.474, 218.455 334.750 L 217.877 339 221.893 339 L 225.909 339 226.576 335.446 L 227.243 331.893 229.371 332.196 L 231.500 332.500 231.813 335.750 L 232.127 339 236.063 339 L 240 339 240 337.877 C 240 335.723, 236.960 304.473, 236.437 301.250 L 235.909 298 228.955 298 C 225.130 298, 222 298.387, 222 298.860 M 260.789 318.501 L 260.500 339.002 264.750 339.001 L 269 339 269 331 L 269 323 271.777 323 C 280.139 323, 284.090 308.469, 277.877 300.570 L 275.855 298 268.467 298 L 261.079 298 260.789 318.501 M 303.553 302.250 C 303.005 306.337, 300.010 336.711, 300.003 338.250 C 300.001 338.663, 301.771 339, 303.937 339 L 307.873 339 308.187 335.750 L 308.500 332.500 311 332.500 L 313.500 332.500 313.813 335.750 L 314.127 339 318.125 339 L 322.123 339 321.578 334.750 C 321.278 332.413, 320.564 325.325, 319.992 319 C 319.419 312.675, 318.695 305.363, 318.382 302.750 L 317.812 298 310.967 298 L 304.123 298 303.553 302.250 M 269 310 L 269 315.167 270.250 314.750 L 271.500 314.333 271.500 310 L 271.500 305.667 270.250 305.250 L 269 304.833 269 310 M 310.075 312.500 C 310.022 315.800, 309.692 320.233, 309.342 322.352 L 308.705 326.203 310.603 325.833 L 312.500 325.462 312.142 318.652 C 311.946 314.906, 311.422 310.639, 310.978 309.171 L 310.172 306.500 310.075 312.500 M 228.638 309.675 C 228.338 310.679, 227.993 314.650, 227.871 318.500 L 227.648 325.500 229.336 325.826 L 231.023 326.151 230.373 317.326 C 229.669 307.777, 229.468 306.892, 228.638 309.675 M 174 360.500 L 174 370 178.045 370 L 182.091 370 184.545 367.545 L 187 365.091 187 360.500 L 187 355.909 184.545 353.455 L 182.091 351 178.045 351 L 174 351 174 360.500 M 191.111 359.038 C 189.899 363.459, 188.656 367.734, 188.347 368.538 L 187.786 370 189.987 370 L 192.187 370 192.710 368 L 193.233 366 195.617 366 L 198 366 198 368 L 198 370 200.607 370 L 203.214 370 202.731 368.741 C 202.465 368.048, 201.184 363.773, 199.885 359.241 L 197.523 351 195.418 351 L 193.314 351 191.111 359.038 M 205 360.500 L 205 370 207 370 L 209 370 209 360.500 L 209 351 207 351 L 205 351 205 360.500 M 211 360.500 L 211 370 215.500 370 L 220 370 220 368.070 L 220 366.139 217.750 365.820 L 215.500 365.500 215.206 358.250 L 214.912 351 212.956 351 L 211 351 211 360.500 M 221 352.040 C 221 352.612, 221.900 354.844, 223 357 L 225 360.920 225 365.460 L 225 370 227 370 L 229 370 229.010 366.250 C 229.015 364.188, 230.140 360.093, 231.510 357.151 C 234.507 350.713, 234.486 351, 231.952 351 L 229.903 351 228.591 354.120 L 227.280 357.241 226.192 354.120 L 225.104 351 223.052 351 C 221.923 351, 221 351.468, 221 352.040 M 235.363 353.250 C 235.691 354.488, 236.689 358.762, 237.580 362.750 L 239.201 370 241.053 370 L 242.906 370 243.947 366.250 C 244.520 364.188, 244.998 361.825, 245.010 361 L 245.031 359.500 245.966 360.980 C 246.481 361.793, 247.188 364.156, 247.539 366.230 L 248.176 370 250.049 370 L 251.923 370 252.899 366.250 C 253.435 364.188, 254.535 359.913, 255.342 356.750 L 256.810 351 254.477 351 L 252.144 351 251.447 356.575 C 250.664 362.848, 249.593 362.655, 248.308 356.008 L 247.440 351.516 245.840 351.208 L 244.240 350.900 242.783 356.700 L 241.327 362.500 240.092 356.750 L 238.858 351 236.812 351 L 234.767 351 235.363 353.250 M 258 360.500 L 258 370 259.907 370 L 261.815 370 262.157 364.750 C 262.346 361.863, 262.362 357.587, 262.193 355.250 L 261.885 351 259.943 351 L 258 351 258 360.500 M 264 353 L 264 355 266 355 L 268 355 268 362.500 L 268 370 270 370 L 272 370 272 362.500 L 272 355 273.500 355 L 275 355 275 353 L 275 351 269.500 351 L 264 351 264 353 M 277 360.500 L 277 370 279 370 L 281 370 281 366 L 281 362 283 362 L 285 362 285 366 L 285 370 287.402 370 L 289.804 370 289.652 360.750 L 289.500 351.500 287.250 351.180 L 285 350.861 285 354.930 L 285 359 283 359 L 281 359 281 355 L 281 351 279 351 L 277 351 277 360.500 M 298.572 352.176 C 298.340 352.904, 297.861 357.212, 297.506 361.750 L 296.863 370 298.931 370 L 301 370 301 366.667 C 301 361.774, 302.339 361.254, 303.590 365.660 C 304.189 367.772, 305.329 369.627, 306.124 369.782 L 307.568 370.063 309.001 365.282 L 310.434 360.500 310.772 365.250 L 311.110 370 313.055 370 L 315 370 315 366.647 C 315 364.802, 314.711 360.527, 314.358 357.147 L 313.715 351 311.909 351 L 310.102 351 308.372 356.488 C 306.414 362.701, 306.117 362.680, 303.914 356.179 L 302.329 351.500 300.661 351.176 C 299.744 350.998, 298.804 351.448, 298.572 352.176 M 317 360.500 L 317 370 322 370 L 327 370 327 368 L 327 366 324.088 366 L 321.177 366 321.429 364.250 C 321.568 363.288, 322.653 362.356, 323.841 362.180 C 326.685 361.760, 326.624 359.228, 323.760 358.820 C 322.528 358.644, 321.370 357.712, 321.187 356.750 L 320.853 355 323.927 355 L 327 355 327 353 L 327 351 322 351 L 317 351 317 360.500 M 178 360.500 L 178 366 179.300 366 C 181.490 366, 183 363.756, 183 360.500 C 183 357.244, 181.490 355, 179.300 355 L 178 355 178 360.500 M 194.710 360 C 194.423 361.100, 194.595 362, 195.094 362 C 195.592 362, 196 361.100, 196 360 C 196 358.900, 195.827 358, 195.617 358 C 195.406 358, 194.998 358.900, 194.710 360" stroke="none" fill="#ffffff" fill-rule="evenodd"/></svg>