<svg xmlns="http://www.w3.org/2000/svg" width="500" height="500" viewBox="0 0 500 500" version="1.1"><path d="M 122 110.084 C 116.402 112.622, 113.419 115.360, 110.653 120.500 L 108.500 124.500 108.500 250 L 108.500 375.500 110.741 379.692 C 113.289 384.459, 118.254 388.613, 123.748 390.573 C 126.802 391.663, 150.326 391.920, 250.282 391.956 C 384.359 392.004, 375.906 392.360, 383.804 386.336 C 385.680 384.905, 388.287 381.431, 389.598 378.617 L 391.980 373.500 391.980 250 L 391.980 126.500 389.633 121.459 C 384.906 111.307, 377.618 107.777, 362.281 108.211 L 352.061 108.500 351.694 191 C 351.343 269.677, 351.232 273.918, 349.287 282.527 C 341.876 315.329, 321.368 332.985, 290.546 333.099 C 277.154 333.149, 267.813 329.647, 258.765 321.183 L 253.795 316.535 250.723 320.364 C 249.034 322.470, 244.502 326.404, 240.653 329.107 C 218.863 344.410, 187.669 341.801, 169.086 323.121 C 155.435 309.398, 149 289.215, 149 260.119 L 149 246.500 172.500 246.500 L 196 246.500 196.006 258.500 C 196.012 271.590, 196.847 276.010, 200.260 281.026 C 203.907 286.384, 207.296 288.339, 212.813 288.267 C 220.603 288.166, 225.477 284.889, 228.462 277.746 C 229.736 274.697, 230 268.646, 230 242.532 L 230 211 189.500 211 L 149 211 149 185.750 L 149 160.500 211.750 160.749 C 246.262 160.885, 274.837 160.998, 275.250 160.999 C 275.663 160.999, 276.010 185.863, 276.022 216.250 C 276.043 268.310, 276.153 271.741, 277.938 275.672 C 280.687 281.726, 283.675 283.336, 291.156 282.795 C 296.492 282.409, 297.663 281.941, 300.087 279.229 C 301.621 277.512, 303.352 274.395, 303.933 272.303 C 304.634 269.779, 304.991 241.510, 304.994 188.250 L 305 108 215.750 108.022 C 128.077 108.044, 126.421 108.080, 122 110.084" stroke="none" fill="#ffffff" fill-rule="evenodd"/></svg>